<svg width="34" height="38" viewBox="0 0 34 38" fill="none" xmlns="http://www.w3.org/2000/svg">
<path d="M16.6565 0.0360031C16.2234 0.0886288 16.1351 0.108679 15.7647 0.226461C14.8843 0.509645 14.2546 1.01837 13.8557 1.77269C13.7047 2.05588 13.5907 2.34658 13.5565 2.53954C13.5423 2.61472 13.5167 2.75506 13.4967 2.8528C13.4568 3.06832 13.4825 3.84519 13.5394 4.11835C13.6591 4.70477 13.8984 5.19345 14.3116 5.70217C14.417 5.82998 14.5509 6.02545 14.6136 6.13572C14.719 6.31866 14.7304 6.36377 14.7646 6.67452C14.8073 7.06045 14.7845 7.58672 14.7133 7.85236C14.6905 7.94258 14.625 8.11549 14.568 8.2408C14.2631 8.90991 13.7702 9.35097 12.8784 9.75445C12.6163 9.87223 12.4739 9.92486 11.565 10.2481C10.8983 10.4862 10.545 10.6717 10.0634 11.035C9.60188 11.3834 9.09187 11.9949 8.92377 12.4008C8.8383 12.6063 8.83545 12.8344 8.91238 13.0925C8.98645 13.3431 9.19729 13.927 9.31981 14.2177C9.49076 14.6262 9.78707 15.17 10.1005 15.6562C10.5136 16.2927 11.2857 17.3177 11.7046 17.7888C11.9752 18.0946 12.3998 18.5381 12.5251 18.6534C12.565 18.6885 12.6619 18.7887 12.7445 18.879C13.2032 19.3827 14.4711 20.548 15.38 21.3048C15.8843 21.7233 16.759 22.3323 16.7904 22.2872C16.7989 22.2721 16.8445 22.2621 16.8872 22.2621C16.93 22.2621 17.0098 22.232 17.0667 22.192C17.232 22.0817 17.4428 21.9288 17.4742 21.8987C17.4913 21.8837 17.7334 21.7033 18.0127 21.4978C18.8731 20.8688 19.7279 20.137 20.7792 19.1321C21.03 18.8915 21.255 18.6785 21.2778 18.6559C21.7337 18.2274 22.6397 17.2074 22.9304 16.7939C23.0101 16.6787 23.1383 16.5007 23.2153 16.398C23.5999 15.8742 23.9048 15.4056 24.184 14.9069C24.6798 14.0197 25.0074 13.2203 25.0815 12.7241C25.0986 12.6063 25.0872 12.5637 24.9647 12.2981C24.808 11.9497 24.7054 11.7793 24.5316 11.5788C24.0016 10.9674 23.2808 10.5188 22.2836 10.1855C21.7536 10.0076 21.4374 9.89228 21.1781 9.777C20.2464 9.3635 19.4999 8.62422 19.2492 7.86489C19.1865 7.67694 19.1837 7.62431 19.1865 7.02536C19.1894 6.63693 19.2036 6.36126 19.2207 6.31866C19.2378 6.28358 19.3632 6.10565 19.4971 5.92521C19.9729 5.28617 20.0869 5.07065 20.3091 4.36896C20.4772 3.84018 20.5285 3.17608 20.4345 2.73752C20.2407 1.8178 19.668 1.02088 18.856 0.544729C18.3147 0.228968 17.9072 0.103666 17.0753 0.000917435C17.0439 -0.00409317 16.8559 0.0134487 16.6565 0.0360031ZM17.8816 10.7067C18.1694 10.7719 18.4343 10.9624 18.6195 11.233L18.6965 11.3433L18.6936 12.4685C18.6908 13.2654 18.6993 13.5962 18.7221 13.6087C18.7392 13.6188 19.3318 13.6263 20.0384 13.6263L21.3206 13.6288L21.4545 13.6864C21.6112 13.7541 21.7707 13.9045 21.8591 14.0674C21.916 14.1751 21.9189 14.2202 21.9274 15.1525C21.936 15.997 21.9303 16.1449 21.8904 16.2677C21.8306 16.4481 21.6967 16.5909 21.5029 16.6862L21.3491 16.7614L20.0384 16.7689C19.0526 16.7739 18.725 16.7839 18.7079 16.8065C18.6965 16.824 18.6851 17.3904 18.6851 18.067V19.2975L18.6024 19.4077C18.4714 19.5807 18.2605 19.7461 18.0583 19.8363L17.8731 19.919L17.0468 19.9165C16.1465 19.914 15.984 19.8939 15.7333 19.7661C15.5025 19.6483 15.2575 19.3476 15.2233 19.1421C15.2119 19.0845 15.2176 18.5381 15.2376 17.9267C15.2661 16.8666 15.2661 16.8115 15.2176 16.7789C15.1777 16.7538 14.8985 16.7488 13.8386 16.7538L12.5109 16.7614L12.3485 16.6636C12.1519 16.5433 12.0408 16.423 11.9781 16.2626C11.9354 16.1524 11.9325 16.0346 11.9468 15.1725C11.9582 14.6312 11.9781 14.1501 11.9952 14.0799C12.0208 13.9821 12.0579 13.9295 12.1747 13.8268C12.4482 13.5862 12.4055 13.5912 13.8728 13.5912C14.8615 13.5912 15.1549 13.5837 15.172 13.5586C15.1834 13.5436 15.2005 13.0198 15.2091 12.4008C15.2233 11.3408 15.2262 11.2656 15.2774 11.1979C15.4199 11.005 15.8245 10.7544 16.0638 10.7118C16.3174 10.6666 16.3345 10.6666 17.0211 10.6616C17.5824 10.6591 17.7078 10.6666 17.8816 10.7067Z" fill="url(#paint0_linear_219_727)"/>
<path d="M16.8817 11.9471C16.8475 11.9797 16.8019 12.0499 16.7791 12.1025C16.7051 12.2905 16.2634 13.1826 16.0839 13.5184C15.9814 13.7039 15.8646 13.9269 15.8218 14.0171C15.7791 14.1073 15.6053 14.4106 15.4343 14.6937C15.0554 15.3253 14.9557 15.5157 14.9357 15.6536C14.9044 15.844 15.007 15.8816 15.3773 15.8089C15.705 15.7463 16.0469 15.6962 16.1495 15.6962C16.2036 15.6962 16.329 15.6786 16.4258 15.6586C16.5227 15.6385 16.6224 15.6285 16.6424 15.636C16.6709 15.646 16.688 15.7338 16.7022 15.9793C16.7136 16.1623 16.7336 16.3828 16.7478 16.473C16.7649 16.5633 16.7877 16.9291 16.8019 17.2875C16.8304 17.9341 16.876 18.2949 16.9615 18.5455C17.0042 18.6683 17.0612 18.7235 17.0612 18.6433C17.0612 18.5581 17.1894 18.2799 17.4145 17.8865C17.5484 17.6484 17.6595 17.4479 17.6595 17.4404C17.6595 17.4303 17.7507 17.2925 17.8618 17.1321C18.0499 16.859 18.5399 16.0094 18.5855 15.8741C18.6169 15.7839 18.7622 15.5734 18.8818 15.4456C19.1383 15.1699 19.1696 15.0797 19.0186 15.0346C18.9388 15.0095 18.2066 15.0446 17.7308 15.0972C17.6054 15.1123 17.4573 15.1248 17.4031 15.1273L17.3034 15.1323L17.3148 14.1048C17.3233 13.2828 17.3148 12.9846 17.2778 12.6137C17.2151 12.0098 17.2122 12.0048 17.1438 11.9421C17.0698 11.8694 16.9586 11.8719 16.8817 11.9471ZM16.7848 13.4507C16.8133 13.5109 16.7535 15.0396 16.7222 15.0897C16.6851 15.1473 16.6053 15.1624 16.1865 15.1849C15.8104 15.205 15.7848 15.1899 15.9016 15.012C16.0184 14.8366 16.2492 14.4231 16.3774 14.1549C16.4429 14.0171 16.5056 13.8918 16.5142 13.8793C16.5455 13.8367 16.631 13.6061 16.6338 13.566C16.6338 13.5184 16.7136 13.4157 16.745 13.4157C16.7592 13.4157 16.7763 13.4307 16.7848 13.4507ZM18.0043 15.621C18.0584 15.6486 18.0556 15.6536 17.9616 15.8039C17.9074 15.8891 17.8362 16.022 17.802 16.0971C17.7678 16.1723 17.6823 16.3578 17.6111 16.5106C17.5399 16.661 17.4601 16.8364 17.4316 16.8991C17.4031 16.9617 17.3604 17.0118 17.3404 17.0118C17.2891 17.0118 17.2379 15.7638 17.2863 15.7112C17.3205 15.6761 17.5399 15.636 17.9103 15.5984C17.9302 15.5984 17.973 15.6085 18.0043 15.621Z" fill="black"/>
<path d="M33.5808 4.41143C33.4925 4.59938 33.0281 5.4765 32.9511 5.59679C32.5067 6.31101 32.4069 6.43381 31.5835 7.27584C31.1305 7.73695 30.3726 8.38351 29.8541 8.7494C29.6233 8.91229 29.1817 9.27316 28.401 9.94478C28.1275 10.1803 27.834 10.4259 27.7485 10.4886L27.5918 10.6039L27.5719 10.8745C27.5434 11.2605 27.4123 11.9596 27.2727 12.4634C27.2528 12.5385 27.2157 12.6789 27.1901 12.7766C27.0961 13.145 26.965 13.5309 26.663 14.3053C26.5319 14.6461 26.1729 15.413 26.0105 15.6962C25.8595 15.9643 25.3552 16.7938 25.2811 16.8991C25.2469 16.9467 25.1586 17.087 25.0817 17.2123C24.811 17.6584 24.3637 18.2598 23.8679 18.8412C23.7255 19.0091 23.5574 19.2648 23.5574 19.3149C23.5574 19.3374 23.5716 19.355 23.5859 19.355C23.603 19.355 23.8337 19.2171 24.1016 19.0467C24.9734 18.4954 24.9335 18.5205 25.9792 17.914C26.8767 17.3978 27.1046 17.2599 27.6602 16.9041C27.7941 16.8189 28.0163 16.6785 28.1531 16.5933C29.6746 15.6385 30.988 14.5709 31.7089 13.7038C32.1648 13.1525 32.2588 13.0247 32.5152 12.5786C32.8571 11.9947 32.9454 11.8519 33.048 11.7266C33.0936 11.6714 33.1306 11.6113 33.1306 11.5938C33.1306 11.5612 33.1933 11.4233 33.2617 11.3056C33.2845 11.2705 33.3016 11.2179 33.3016 11.1903C33.3016 11.1602 33.313 11.1326 33.3272 11.1251C33.3529 11.1101 33.4041 10.9798 33.5352 10.5989C33.709 10.0851 33.823 9.57388 33.9284 8.84212C33.9854 8.45118 34.0196 7.2984 33.9882 6.87487C33.9227 6.02031 33.8657 5.40132 33.8287 5.15823C33.7631 4.73972 33.6976 4.38637 33.6834 4.36382C33.6549 4.32372 33.6121 4.34377 33.5808 4.41143Z" fill="url(#paint1_linear_219_727)"/>
<path d="M0.364885 4.62962C0.285108 4.71733 0.111308 5.60447 0.0486259 6.24853C-0.00265943 6.77229 -0.0169053 8.23332 0.0229832 8.62927C0.179688 10.1805 0.621312 11.4436 1.42763 12.6515C2.10574 13.6689 3.07161 14.6789 4.18279 15.5359C4.75548 15.9745 5.898 16.7739 6.46214 17.1248C6.62739 17.2275 6.9351 17.418 7.14594 17.5508C7.76421 17.9392 9.2116 18.8013 9.60194 19.0143C9.70166 19.0695 9.9068 19.1897 10.0578 19.285C10.3142 19.4429 10.4225 19.488 10.4225 19.4328C10.4225 19.3952 10.149 19.0394 9.84412 18.6835C9.60478 18.4003 9.0264 17.646 9.0264 17.616C9.0264 17.6109 8.93808 17.4706 8.82696 17.3027C8.71869 17.1348 8.53919 16.8441 8.43092 16.6536C8.32265 16.4657 8.18304 16.2201 8.11751 16.1098C8.01209 15.9269 7.8098 15.551 7.64455 15.2327C7.61036 15.1625 7.55337 15.0397 7.52203 14.957C7.48784 14.8743 7.43371 14.744 7.39952 14.6688C7.32544 14.5009 7.01203 13.6739 6.89236 13.3281C6.78409 13.0098 6.68152 12.6289 6.60744 12.263C6.57325 12.1052 6.53337 11.9172 6.51912 11.8495C6.45644 11.5739 6.37666 11.0401 6.37666 10.8972C6.37666 10.6441 6.34247 10.579 6.11169 10.4086C5.99772 10.3234 5.77833 10.1429 5.62163 10.0101C5.46492 9.87477 5.15151 9.62668 4.92358 9.45627C4.51899 9.15303 4.01184 8.75958 3.98335 8.72951C3.9748 8.72199 3.83519 8.61423 3.66994 8.48893C2.98613 7.96767 1.92054 6.94521 1.5359 6.43899C1.05724 5.80997 0.729581 5.28871 0.564328 4.88273C0.456059 4.6196 0.41902 4.57449 0.364885 4.62962ZM2.31942 9.56152C2.38211 9.64673 2.44479 9.73694 2.45903 9.762C2.47613 9.78706 2.5673 9.91738 2.66133 10.0502C2.7582 10.1855 2.92345 10.4236 3.02602 10.5815C3.13144 10.7369 3.32234 11.0025 3.4534 11.1704C3.74687 11.5463 4.39078 12.3883 4.73268 12.8394C5.50481 13.8669 6.37666 15.0021 6.45929 15.0848C6.64733 15.2828 6.99778 15.7489 6.95504 15.7439C6.90091 15.7414 6.43934 15.2277 5.89515 14.5686C5.80967 14.4659 5.65582 14.2779 5.5504 14.1551C5.44498 14.0298 5.33671 13.8945 5.30822 13.8544C5.27688 13.8118 5.18 13.6965 5.08598 13.5937C4.99481 13.4935 4.73553 13.1652 4.5076 12.867C4.27966 12.5688 3.99759 12.2104 3.88078 12.0701C3.43915 11.5388 2.89211 10.7369 2.49322 10.0377C2.2311 9.57656 2.15132 9.40614 2.19976 9.40614C2.20546 9.40614 2.25959 9.47631 2.31942 9.56152Z" fill="url(#paint2_linear_219_727)"/>
<path d="M11.3343 5.23072C10.9325 5.30841 10.6134 5.53395 10.5536 5.78706C10.5336 5.86224 10.5308 5.86224 10.2715 5.89482C9.85839 5.94494 9.57917 6.01762 9.23726 6.16046C8.69592 6.38601 8.32553 6.63912 7.96653 7.03006C7.67876 7.34332 7.59329 7.45859 7.42803 7.75431C7.13457 8.27557 7.04054 8.58631 6.96077 9.29302C6.90663 9.76165 6.90663 10.1401 6.96077 10.734C7.04054 11.6587 7.14311 12.18 7.39099 12.9268C7.42803 13.0371 7.49071 13.235 7.52775 13.3653C7.56764 13.4957 7.62748 13.6661 7.65882 13.7413C7.69301 13.8164 7.74999 13.9568 7.78703 14.0545C7.84686 14.2099 7.95798 14.4855 8.07765 14.7762C8.09759 14.8289 8.15742 14.9467 8.21156 15.0394C8.26569 15.1321 8.34262 15.28 8.38536 15.3702C8.47368 15.5556 8.59335 15.7686 8.77 16.0593C8.83553 16.1696 8.9381 16.3375 8.99793 16.4353C9.21447 16.7911 9.88973 17.7685 10.0778 17.999C10.186 18.1318 10.3342 18.3173 10.4054 18.415C10.4767 18.5103 10.6647 18.7433 10.8243 18.9288C10.981 19.1142 11.169 19.3398 11.2431 19.43C11.4311 19.663 11.9867 20.2745 12.2859 20.5828C12.8472 21.1566 13.0666 21.3671 14.0951 22.2994C14.3231 22.5074 14.6707 22.8282 14.8644 23.0136C15.0581 23.1991 15.2405 23.372 15.269 23.3996C15.3174 23.4447 15.3231 23.4422 15.4713 23.3219C15.6137 23.2041 16.0838 22.8808 16.1921 22.8257C16.2263 22.8081 16.2377 22.7831 16.2235 22.7505C16.2121 22.7229 15.9756 22.5224 15.6992 22.3044C15.0952 21.8308 15.1208 21.8533 14.3658 21.2168C14.0353 20.9361 13.5281 20.48 13.2404 20.2018C12.9526 19.9237 12.6335 19.6154 12.5309 19.5177C11.9953 19.0014 11.1291 18.0141 10.6704 17.4001C9.50224 15.8313 9.14039 15.2424 8.62754 14.067C8.31413 13.3553 7.91524 12.1449 7.91524 11.9168C7.91524 11.8742 7.89815 11.759 7.87535 11.6587C7.79273 11.2753 7.76709 11.1124 7.7272 10.6839C7.67591 10.1275 7.67591 9.78922 7.73005 9.31808C7.81837 8.50612 7.97793 8.13021 8.47368 7.55132C8.71586 7.27064 8.85547 7.14283 9.12615 6.9649C9.41106 6.77946 9.59911 6.69174 9.92392 6.59902C10.0806 6.55642 10.2858 6.49126 10.3798 6.45868L10.5507 6.39603L10.6077 6.46119C10.904 6.797 10.9924 6.8371 11.4625 6.8371C11.7901 6.8371 11.8101 6.83459 11.9611 6.76191C12.3286 6.58398 12.5309 6.31083 12.5309 5.99005C12.5309 5.64923 12.2318 5.32344 11.8329 5.23072C11.6619 5.19062 11.5423 5.19062 11.3343 5.23072ZM10.8072 5.8021C10.7844 5.86725 10.679 5.97251 10.679 5.93241C10.679 5.8848 10.7673 5.74697 10.7958 5.74697C10.8129 5.74697 10.8157 5.77202 10.8072 5.8021Z" fill="black"/>
<path d="M22.1583 5.25601C21.7822 5.37379 21.4488 5.7497 21.4488 6.05795C21.4488 6.21833 21.4802 6.2885 21.6226 6.46392C21.8249 6.70701 22.0044 6.79973 22.3862 6.85737C22.5942 6.88995 22.6455 6.88995 22.8136 6.85487C23.0757 6.80475 23.1954 6.7446 23.315 6.60677C23.4518 6.44889 23.4831 6.43636 23.6114 6.48147C23.6683 6.50152 23.7652 6.5366 23.8279 6.55665C24.5231 6.7872 24.8023 6.94258 25.2297 7.33352C25.489 7.5716 25.6058 7.71695 25.7938 8.04774C25.9534 8.32341 25.9961 8.43368 26.0645 8.71686C26.1813 9.21306 26.2155 9.60901 26.1984 10.3508C26.1842 11.075 26.1585 11.3106 26.0503 11.7116C25.8651 12.3932 25.8109 12.5486 25.3095 13.8292C25.0103 14.5935 24.5516 15.4606 24.1271 16.0596C23.9903 16.2525 23.731 16.6259 23.5458 16.8916C23.3635 17.1572 23.1469 17.4554 23.0643 17.5582C22.9845 17.6609 22.7851 17.9065 22.6255 18.1045C22.3378 18.4654 21.634 19.1946 21.1668 19.6182C21.03 19.741 20.8761 19.8888 20.8249 19.9439C20.5969 20.1845 19.7336 20.9814 19.537 21.1318C19.4174 21.222 19.1153 21.4551 18.8675 21.6481C18.6196 21.841 18.3575 22.0415 18.2862 22.0916C18.215 22.1417 18.0241 22.2796 17.8589 22.3999C17.6936 22.5177 17.46 22.6831 17.3375 22.7657C16.7021 23.1993 15.3345 24.337 14.7675 24.9059C14.6592 25.0162 14.4598 25.2066 14.3316 25.3319C14.1321 25.5199 13.8073 25.9184 13.568 26.2642C13.5395 26.3093 13.4284 26.4672 13.323 26.615C13.1321 26.8882 12.8528 27.3468 12.793 27.4871C12.7759 27.5272 12.736 27.625 12.7018 27.7002C12.5736 27.9959 12.3656 28.5748 12.3172 28.7652C12.2887 28.8755 12.2517 29.0334 12.2289 29.1161C12.0009 30.0233 12.0494 31.2437 12.3457 32.0481C12.4141 32.2336 12.5879 32.602 12.7132 32.83C12.7531 32.9027 12.7873 32.9654 12.7873 32.9704C12.7873 32.9754 12.8842 33.1358 13.001 33.3262C13.1178 33.5167 13.2147 33.6771 13.2147 33.6821C13.2147 33.7046 13.5366 34.1206 13.6877 34.2936C14.2974 34.9927 14.7532 35.4263 15.1949 35.7421C15.6336 36.0503 16.4257 36.5264 17.1095 36.8923C17.5825 37.1429 18.4971 37.5213 18.9415 37.6492C19.027 37.6742 19.2265 37.7344 19.3832 37.782C19.5399 37.8321 19.745 37.8872 19.839 37.9098C20.047 37.9549 20.5228 38 20.8078 38C21.124 38 21.275 37.9273 21.0414 37.8872C20.0014 37.7118 19.3233 37.5013 18.252 37.0151C17.6537 36.7445 17.5625 36.6969 17.1323 36.4212C16.9927 36.331 16.8218 36.2257 16.7562 36.1881C16.5796 36.0804 16.1664 35.7671 15.8701 35.5115C15.4171 35.118 15.061 34.7046 14.5595 33.9778C14.135 33.3613 13.8643 32.7223 13.6934 31.9354C13.6392 31.6823 13.6307 31.557 13.6307 30.9204C13.6278 30.1435 13.6335 30.0859 13.8045 29.4419C14.0096 28.66 14.4797 27.6776 14.9669 27.011C15.3373 26.4998 15.9727 25.773 16.4599 25.2943C16.7391 25.0212 17.8902 23.9887 18.5996 23.3772C18.9045 23.1141 19.2293 22.8334 19.3262 22.7507C20.2351 21.9638 21.5115 20.7183 22.0614 20.0818C22.1383 19.9916 22.2722 19.8462 22.3577 19.756C22.4432 19.6658 22.5572 19.5304 22.6113 19.4553C22.6683 19.3801 22.8991 19.0969 23.1298 18.8288C23.5287 18.3626 23.8222 17.9842 23.9988 17.7136C24.0416 17.6434 24.241 17.3577 24.4405 17.0745C24.6399 16.7913 24.8507 16.4806 24.9106 16.3854C24.9704 16.2876 25.0559 16.1498 25.1015 16.0771C25.4263 15.5584 25.8366 14.7639 26.0246 14.2803C26.0787 14.1424 26.1414 13.9896 26.1642 13.942C26.2241 13.8066 26.3694 13.4007 26.4491 13.1375C26.6657 12.4308 26.6999 12.318 26.7198 12.2379C26.7312 12.1902 26.7682 12.0474 26.8024 11.9246C26.8908 11.5888 27.0332 10.4736 27.0332 10.1202C27.0332 9.8095 26.9534 8.98751 26.905 8.78452C26.6771 7.83974 26.3836 7.34355 25.7141 6.76716C25.3209 6.42633 25.1129 6.29602 24.7311 6.14816C24.3265 5.99028 24.0473 5.92262 23.7823 5.92262C23.6655 5.92262 23.5572 5.91259 23.5401 5.90257C23.523 5.89255 23.486 5.82488 23.4575 5.7497C23.3891 5.56425 23.2267 5.42893 22.9646 5.34122C22.6027 5.21842 22.3606 5.19085 22.1583 5.25601Z" fill="url(#paint3_linear_219_727)"/>
<path d="M32.0222 14.4005C31.9396 14.5158 31.0848 15.4631 30.8398 15.7087C30.5121 16.037 30.3896 16.1447 30.1959 16.2826C29.5776 16.7161 27.2641 18.0318 26.5261 18.3701C26.0674 18.5806 25.6657 18.7886 25.2184 19.0493C23.8878 19.8236 23.0387 20.3248 22.8906 20.4276C22.8279 20.4727 22.6512 20.5905 22.5031 20.6932C22.3407 20.8035 21.9418 21.1393 21.5059 21.5353C21.107 21.8986 20.4346 22.5051 20.0101 22.8835C19.5884 23.2619 19.2294 23.5877 19.218 23.6078C19.2037 23.6278 19.2066 23.6905 19.2237 23.7531C19.2408 23.8132 19.255 23.9185 19.255 23.9887C19.255 24.1466 19.2921 24.2343 19.406 24.337C19.52 24.4398 19.7052 24.4899 20.0528 24.5099C20.4659 24.53 20.7964 24.4849 21.3435 24.3295C21.8107 24.1942 21.9361 24.1466 22.241 23.9736C22.3863 23.8884 22.5772 23.8032 23.0872 23.5902C23.392 23.4624 24.6428 22.9888 24.677 22.9888C24.6884 22.9888 24.9078 22.9036 25.1614 22.7983C26.9991 22.039 27.5917 21.7257 28.6431 20.9589C29.3269 20.4577 29.4864 20.3148 30.005 19.7309C30.0477 19.6833 30.1873 19.5029 30.3184 19.3299C30.8968 18.5706 30.8968 18.5706 31.2586 17.8388C31.4524 17.4479 31.5492 17.2123 31.5806 17.0544C31.5977 16.9567 31.7515 16.4304 31.8484 16.1347C31.9082 15.9493 31.988 15.611 32.0479 15.2952C32.0934 15.0546 32.1191 14.3955 32.0877 14.368C32.0706 14.3529 32.045 14.368 32.0222 14.4005Z" fill="url(#paint4_linear_219_727)"/>
<path d="M2.0459 14.5983C2.0459 14.6283 2.0573 14.716 2.07439 14.7912C2.08864 14.8689 2.12283 15.0619 2.14562 15.2198C2.25104 15.9215 2.27953 16.1019 2.33367 16.3851C2.5673 17.613 3.21691 18.9262 4.02323 19.8058C4.34234 20.1542 4.72698 20.5 5.10877 20.7832C5.68715 21.2142 5.94928 21.3972 6.20855 21.5475C6.49347 21.7129 7.33113 22.1615 7.35678 22.1615C7.36532 22.1615 7.4394 22.1966 7.52203 22.2392C7.78415 22.377 8.54773 22.7053 9.015 22.8832C9.26288 22.981 9.69311 23.1464 9.96663 23.2516C10.2401 23.3569 10.5279 23.4672 10.6048 23.4922C10.7587 23.5473 12.2916 24.219 12.4454 24.2992C12.4995 24.3292 12.699 24.4545 12.887 24.5773C13.2916 24.8455 13.6107 25.0435 13.6449 25.0435C13.6706 25.0435 14.0581 24.6901 14.229 24.5122C14.3059 24.432 14.4598 24.2992 14.5681 24.214C14.6792 24.1288 14.7789 24.0435 14.7903 24.0235C14.8188 23.9809 14.625 23.7228 14.3316 23.417C13.9469 23.0211 12.2118 21.4874 11.6932 21.0889C11.0721 20.6103 10.1803 19.9938 9.73869 19.7382C9.24863 19.455 8.78707 19.1843 8.48505 18.9989C8.33689 18.9087 8.1574 18.8059 8.08617 18.7708C8.01494 18.7382 7.88102 18.6731 7.787 18.628C7.69298 18.5829 7.55337 18.5102 7.47359 18.4651C7.39666 18.42 7.14594 18.2922 6.918 18.1769C6.27978 17.8561 6.18006 17.8035 5.92079 17.6506C5.78688 17.5729 5.52475 17.4251 5.3367 17.3248C4.55888 16.9113 3.84658 16.4101 3.4477 15.9966C3.36222 15.9064 3.16563 15.716 3.01177 15.5706C2.68981 15.2649 2.52741 15.0894 2.37355 14.8814C2.22825 14.681 2.10288 14.5431 2.07154 14.5431C2.0573 14.5431 2.0459 14.5682 2.0459 14.5983Z" fill="url(#paint5_linear_219_727)"/>
<path d="M21.7766 25.0838C21.4375 25.1289 21.1155 25.2417 20.7509 25.4497C20.4631 25.6151 20.295 25.7529 20.1924 25.9158C20.1411 25.9935 20.0585 26.0963 20.0072 26.1464C19.8477 26.3018 19.6853 26.6175 19.5969 26.9408C19.4972 27.3142 19.5314 27.9582 19.671 28.3392C19.7821 28.6349 20.0044 28.9281 20.3149 29.1937C20.9218 29.7125 21.5857 29.9556 22.3891 29.9556C23.053 29.9556 23.8394 29.6649 24.3152 29.2413C24.9306 28.6925 25.2241 27.9507 25.1272 27.2014C25.0674 26.7579 24.9107 26.422 24.5887 26.0486C24.2952 25.7128 23.9391 25.4697 23.4291 25.2567C23.0758 25.1089 22.9561 25.0913 22.3891 25.0813C22.0985 25.0763 21.825 25.0788 21.7766 25.0838ZM23.0074 25.8005C23.3094 25.8958 23.5317 26.0236 23.7966 26.2516C23.9419 26.3794 24.036 26.4872 24.1043 26.61C24.2952 26.9483 24.3123 27.016 24.3095 27.4871C24.3066 27.8755 24.3009 27.9282 24.2383 28.076C24.036 28.5447 23.5117 28.9607 22.9419 29.1035C22.8393 29.1311 22.6028 29.1637 22.4205 29.1812C22.1213 29.2088 22.0558 29.2063 21.8307 29.1687C21.2039 29.0584 20.7452 28.7376 20.4289 28.1863C20.1041 27.6174 20.2921 26.7002 20.8363 26.214C21.0215 26.0511 21.3321 25.8757 21.5714 25.8005C21.9646 25.6803 22.6228 25.6803 23.0074 25.8005Z" fill="black"/>
<path d="M16.9955 25.5473C16.779 25.7277 16.628 25.8781 16.5624 25.9733C16.4684 26.1136 16.4599 26.1487 16.42 26.492C16.3972 26.695 16.3658 26.9506 16.3487 27.0609C16.3145 27.299 16.2747 27.7877 16.2348 28.4518C16.2006 29.0031 16.192 30.8651 16.2205 31.1107C16.2405 31.256 16.3117 31.5342 16.4684 32.0354C16.4997 32.1382 16.5425 32.286 16.5653 32.3612C16.6593 32.6669 16.8416 32.9251 17.1721 33.2107C17.5853 33.5641 18.3973 33.9976 18.9272 34.1455C19.0896 34.1906 19.1922 34.2006 19.4828 34.1981C19.8019 34.1981 19.8732 34.1881 20.1324 34.1179C20.4744 34.0252 20.7821 33.9049 20.9958 33.7846C21.2978 33.6117 21.8306 33.128 22.0955 32.7872C22.3178 32.499 22.6027 31.9201 22.7309 31.4966C22.842 31.1307 22.8762 30.4391 22.7907 30.3488C22.7594 30.3138 22.6939 30.3087 22.3719 30.3188C22.1639 30.3238 21.9787 30.3338 21.9616 30.3438C21.9474 30.3514 21.9331 30.424 21.9331 30.5017C21.9331 30.8751 21.765 31.4665 21.5314 31.9126C21.3661 32.2284 21.2237 32.4113 20.9673 32.6394C20.6054 32.9551 20.3689 33.088 19.9387 33.2107C19.4031 33.3661 19.0241 33.2834 18.3973 32.8724C18.0241 32.6293 17.8132 32.4038 17.5967 32.0229C17.2491 31.4114 17.175 30.9152 17.175 29.1986C17.175 27.6147 17.2149 26.8805 17.363 25.8129C17.4143 25.4395 17.4143 25.2691 17.3687 25.2691C17.3488 25.2691 17.1807 25.3944 16.9955 25.5473Z" fill="black"/>
<defs>
<linearGradient id="paint0_linear_219_727" x1="24" y1="13" x2="9.52182" y2="12.4379" gradientUnits="userSpaceOnUse">
<stop/>
<stop offset="1" stop-color="#252F36"/>
</linearGradient>
<linearGradient id="paint1_linear_219_727" x1="31.5" y1="14.5" x2="27" y2="12" gradientUnits="userSpaceOnUse">
<stop/>
<stop offset="1" stop-color="#252F36"/>
</linearGradient>
<linearGradient id="paint2_linear_219_727" x1="1.5" y1="13" x2="6.50357" y2="12.5388" gradientUnits="userSpaceOnUse">
<stop/>
<stop offset="1" stop-color="#252F36"/>
</linearGradient>
<linearGradient id="paint3_linear_219_727" x1="20" y1="23" x2="18.4066" y2="21.7666" gradientUnits="userSpaceOnUse">
<stop offset="0.138743"/>
<stop offset="1" stop-color="#252F36"/>
</linearGradient>
<linearGradient id="paint4_linear_219_727" x1="28" y1="21.5" x2="25.3129" y2="18.0827" gradientUnits="userSpaceOnUse">
<stop offset="0.138743"/>
<stop offset="1" stop-color="#252F36"/>
</linearGradient>
<linearGradient id="paint5_linear_219_727" x1="10.7378" y1="21.9257" x2="7.93158" y2="18.5141" gradientUnits="userSpaceOnUse">
<stop offset="0.138743"/>
<stop offset="1" stop-color="#252F36"/>
</linearGradient>
</defs>
</svg>
