<svg xmlns="http://www.w3.org/2000/svg" viewBox="0 0 227.24 101.25"><defs><style>.cls-1{fill:#fff;}.cls-2{fill:#2c649d;}.cls-3{fill:#55d3df;}.cls-4{fill:#efefef;}</style></defs><g id="Layer_2" data-name="Layer 2"><g id="Layer_1-2" data-name="Layer 1"><path class="cls-1" d="M89.51,34.87v3.57c0,.13-.07.19-.21.19H86.82c-.14,0-.14-.06-.14-.12V28c0-.25.14-.38.42-.38,3.11-.18,8.2-.62,8.42,3.21.14,2.76-2.41,4.14-5.45,3.7C89.65,34.43,89.51,34.55,89.51,34.87Zm0-5.15v2.57c0,.13.07.19.21.19h.71c1.13,0,2-.63,2-1.38h0v-.19c0-.75-.92-1.38-2-1.38h-.71a.21.21,0,0,0-.21.19Z"/><path class="cls-1" d="M103.72,36.37H99.33a.29.29,0,0,0-.28.19l-.78,1.88a.29.29,0,0,1-.28.19H95.52a.29.29,0,0,1-.29-.25v-.06L100,27.71a.39.39,0,0,1,.28-.13h2.27a.39.39,0,0,1,.28.13l4.81,10.54c.07.13,0,.26-.15.32H105a.29.29,0,0,1-.28-.19l-.78-1.88C103.93,36.43,103.79,36.37,103.72,36.37Zm-2-5c-.07-.12-.21-.18-.29-.12a.14.14,0,0,0-.14.12l-1.06,2.51a.16.16,0,0,0,.14.26h2.2a.21.21,0,0,0,.21-.19v-.07Z"/><path class="cls-1" d="M108.59,27.52H111c.14,0,.21.06.21.19V38.32c0,.12-.07.19-.21.19h-2.41c-.14,0-.21-.07-.21-.19V27.71A.21.21,0,0,1,108.59,27.52Z"/><path class="cls-1" d="M121.18,27.52h2.4a.21.21,0,0,1,.21.19V38.32c0,.12-.14.19-.21.19h-2.47c-.07,0-.14-.07-.21-.13l-4.46-6.28c-.07-.12-.21-.12-.35-.06s-.14.13-.14.19l.07,6a.21.21,0,0,1-.21.19H113.4a.21.21,0,0,1-.21-.19h0V27.65a.21.21,0,0,1,.21-.19h2.48a.38.38,0,0,1,.21.12l4.45,6.28c.07.13.21.13.36.06s.14-.12.14-.18l-.07-6C120.9,27.65,121,27.52,121.18,27.52Z"/><path class="cls-1" d="M128.6,31.92h3.61q.21,0,.21.18v1.82c0,.13-.07.19-.21.19h-3.54c-.14,0-.21.07-.21.19v4c0,.12-.07.19-.21.19h-2.41c-.14,0-.21-.07-.21-.19h0V27.65c0-.13.07-.19.21-.19h6.79c.14,0,.21.06.21.19v1.82c0,.12-.07.19-.21.19h-3.89q-.21,0-.21.18h0v1.82C128.32,31.85,128.46,31.92,128.6,31.92Z"/><path class="cls-1" d="M139.21,30.28l2-2.63c.07-.07.14-.07.21-.13h3a.21.21,0,0,1,.21.19c0,.06,0,.06-.07.13l-3.75,4.64a.18.18,0,0,0,0,.25l4.53,5.46c.07.13.07.25-.08.32s-.07.06-.14.06H142c-.07,0-.14-.06-.21-.06l-2.61-3.39c-.08-.13-.22-.13-.36-.07l-.07.07-2.61,3.39c-.08.06-.15.06-.22.12h-3c-.14,0-.21-.06-.21-.19s0-.06.07-.12l4.32-5.46a.17.17,0,0,0,0-.25l-3.54-4.71c-.07-.13-.07-.25.07-.32s.07-.06.14-.06h2.83a.35.35,0,0,1,.21.13l2,2.63a.25.25,0,0,0,.36,0Z"/><path class="cls-1" d="M124.29,52.82c-.71-.38-1.49-.76-2.33-1.13-4-1.76-2.27-6.15,1.76-6.15a8.4,8.4,0,0,1,3.47.75c.28.12.35.31.21.63l-.78,1.31a.43.43,0,0,1-.63.19c-.85-.44-2.27-.88-3.19-.25a.77.77,0,0,0-.14,1.19.7.7,0,0,0,.36.26c2,.81,5.3,1.94,4.87,4.39-.7,4-6.43,3.51-9.19,1.76-.14-.07-.14-.13-.07-.26l1.28-1.94c.07-.06.07-.06.14,0a5.13,5.13,0,0,0,3.81,1.07.91.91,0,0,0,.85-1.07A.65.65,0,0,0,124.29,52.82Z"/><path class="cls-1" d="M139.42,57c-3.47-.12-6.15-2.82-5.94-6h0c.14-3.14,3.11-5.59,6.57-5.46h0c3.47.12,6.15,2.82,5.94,6s-3.11,5.59-6.57,5.46Zm.28-2.45A3.31,3.31,0,0,0,143,51.25h0a3.27,3.27,0,0,0-3.25-3.33,3.32,3.32,0,0,0-3.25,3.33h0A3.31,3.31,0,0,0,139.7,54.57Z"/><path class="cls-1" d="M89.51,53v3.58c0,.13-.07.19-.21.19H86.89c-.14,0-.28-.06-.28-.25V46.1c0-.25.14-.38.42-.38,1.49,0,3,0,4.53.07,5.72.12,5.16,7.59-1.63,6.9C89.65,52.63,89.51,52.75,89.51,53Zm0-5.08v2.57c0,.13.07.19.21.19h.71c1.13,0,2-.63,2-1.38h0v-.19c0-.75-.92-1.38-2-1.38h-.71a.21.21,0,0,0-.21.19Z"/><path class="cls-1" d="M99.62,50.12h3.53a.21.21,0,0,0,.21-.19V46c0-.12.14-.18.22-.18h2.33a.21.21,0,0,1,.21.18V56.58a.21.21,0,0,1-.21.19H103.5a.21.21,0,0,1-.21-.19V52.63a.21.21,0,0,0-.21-.19H99.55a.22.22,0,0,0-.22.19h0v4a.21.21,0,0,1-.21.19h-2.4a.21.21,0,0,1-.21-.19V46a.21.21,0,0,1,.21-.19h2.4a.21.21,0,0,1,.21.19v4A.81.81,0,0,0,99.62,50.12Z"/><path class="cls-1" d="M115.38,45.72h2.9a.21.21,0,0,1,.21.19c0,.06,0,.06-.07.13l-4.31,5.71c0,.06-.07.06-.07.12v4.65c0,.12-.14.19-.21.19h-2.41a.21.21,0,0,1-.21-.19V51.81c0-.06,0-.06-.07-.12L106.83,46c-.07-.12-.07-.25.07-.31s.07-.06.14-.06l2.9.06c.07,0,.14.06.21.06l2.33,3.14c.07.13.22.13.36.06l.07-.06,2.33-3.14Z"/><path class="cls-1" d="M129.66,45.72H132a.29.29,0,0,1,.29.25V56.52a.29.29,0,0,1-.29.25h-2.33a.29.29,0,0,1-.28-.25V46A.29.29,0,0,1,129.66,45.72Z"/><path class="cls-1" d="M149.1,48h-2.26a.28.28,0,0,1-.28-.25V46.1a.34.34,0,0,1,.28-.31H155c.14,0,.35.12.35.25h0v1.69c0,.13-.14.25-.35.25h-2.26a.3.3,0,0,0-.28.32v8.28a.29.29,0,0,1-.29.25h-2.26a.28.28,0,0,1-.28-.25h0V48.36C149.46,48.11,149.31,48,149.1,48Z"/><path class="cls-1" d="M163.1,49.93v-4c0-.12.14-.19.21-.19h2.41a.21.21,0,0,1,.21.19V56.52c0,.12-.14.19-.21.19h-2.41a.21.21,0,0,1-.21-.19v-4c0-.12-.14-.19-.21-.19h-3.54a.21.21,0,0,0-.21.19h0v4c0,.12-.14.18-.21.18H156.6a.21.21,0,0,1-.22-.18V45.85c0-.13.15-.19.22-.19H159a.21.21,0,0,1,.21.19h0V49.8a.21.21,0,0,0,.21.19H163C163,50.12,163.1,50.05,163.1,49.93Z"/><path class="cls-1" d="M170.81,54.57h3.81c.14,0,.21.07.21.19h0l-.07,1.82c0,.13-.07.19-.21.19h-6.64c-.14,0-.22-.06-.22-.19h0V45.91c0-.12.08-.19.22-.19h6.71c.14,0,.21.07.21.19h0l-.07,1.82c0,.13-.07.19-.21.19h-3.82c-.14,0-.21.06-.21.19v1.76q0,.18.21.18h3.68c.14,0,.21.07.21.19h0v1.82c0,.13-.07.19-.21.19h-3.68c-.14,0-.21.06-.21.19v1.82c.07.25.14.31.29.31Z"/><path class="cls-1" d="M179.22,53v3.64c0,.13-.07.19-.21.19h-2.48c-.14,0-.14-.06-.14-.12V46.16c0-.25.14-.37.42-.37,2.41-.07,7.14-.57,7.92,2.19.57,1.89-.14,3.27-2,4.15-.21.12-.28.25-.07.44L185.86,56a.27.27,0,0,0,.36.07.24.24,0,0,0,.07-.13l4.38-9.66a.75.75,0,0,1,.71-.44h1.76a.63.63,0,0,1,.57.31l4.74,10.42c.07.12,0,.25-.14.31h-2.55a.38.38,0,0,1-.42-.25L194.7,55a.46.46,0,0,0-.49-.31h-4a.46.46,0,0,0-.5.31L189,56.52a.46.46,0,0,1-.49.31h-5.09a.91.91,0,0,1-.71-.31l-3.11-3.64C179.36,52.57,179.22,52.57,179.22,53Zm.07-5.08v2.51c0,.13.07.19.21.19h.64c1,0,1.76-.57,1.76-1.32h0V49a1.61,1.61,0,0,0-1.76-1.32h-.64C179.36,47.73,179.29,47.79,179.29,47.92ZM191,52.13a.16.16,0,0,0,.14.25h2.2c.14,0,.21-.07.21-.19v-.06l-1.06-2.45a.29.29,0,0,0-.29-.13c-.07,0-.07.07-.14.13Z"/><path class="cls-1" d="M201.91,53.07v3.39a.32.32,0,0,1-.35.31h-2.12a.32.32,0,0,1-.36-.31V46.1c0-.25.14-.38.43-.38,1.62,0,3.18,0,4.73.07,5.59.25,4.74,7.72-1.83,6.9C202.05,52.63,201.91,52.75,201.91,53.07Zm0-5.15v2.57c0,.13.07.19.21.19h.64c1.13,0,2.05-.56,2.05-1.32h0v-.25c0-.75-.92-1.38-2.05-1.38h-.64C202,47.73,201.91,47.79,201.91,47.92Z"/><path class="cls-1" d="M216.47,45.72h2.83a.21.21,0,0,1,.21.19c0,.06,0,.06-.07.13l-4.31,5.71c0,.06-.07.06-.07.12v4.71a.21.21,0,0,1-.21.19h-2.41a.21.21,0,0,1-.21-.19V51.87c0-.06,0-.06-.07-.12L207.85,46c-.07-.13-.07-.25.07-.32s.07-.06.14-.06H211a.35.35,0,0,1,.21.13l2.33,3.13c.08.13.22.13.36.07l.07-.07,2.33-3.13C216.33,45.79,216.4,45.72,216.47,45.72Z"/><ellipse class="cls-1" cx="64.13" cy="19.43" rx="6.65" ry="5.9"/><ellipse class="cls-2" cx="67.73" cy="34.74" rx="5.58" ry="4.96"/><ellipse class="cls-3" cx="68.65" cy="48.23" rx="4.52" ry="4.02"/><path class="cls-1" d="M23.9,67.75A24.1,24.1,0,0,1,26.24,57.4c.07-.13.14-.13.28-.13a.07.07,0,0,1,.07.07A89.76,89.76,0,0,1,37.26,68.63,3.12,3.12,0,0,1,37.55,71a72.26,72.26,0,0,0-.29,22.34,29.61,29.61,0,0,0,2.27,7.35c.28.56.07.69-.5.37a8.78,8.78,0,0,1-.78-.56Q23.31,87.14,23.83,68.13a.23.23,0,0,1,.07-.19Z"/><path class="cls-1" d="M55,28.84c.21.63.42,1.32.56,1.95A74.79,74.79,0,0,1,57.77,45q.1,2.73.42,5.65c.14,1.69-.42,3.26-.35,4.9a80.16,80.16,0,0,1-1.63,17.57A80.3,80.3,0,0,1,49.35,94.3c-.35.76-.56.69-.49-.12C49.42,67.69,26.59,46.29.79,35.49c-1.06-.44-1.06-.5.07-.19,8.06,2.2,18.38,2.77,26.51.19q15.9-5.09,16.33-20.08A32.29,32.29,0,0,0,40.16.66L40,.47c-.07,0-.14-.06-.14-.19a.23.23,0,0,1,.07-.19C40,0,40,0,40,.09c.21.51.78.63,1.13,1.13A73.12,73.12,0,0,1,54.37,26.83,9.81,9.81,0,0,0,55,28.84Z"/><ellipse class="cls-1" cx="23.83" cy="22.44" rx="12.51" ry="11.11"/><path class="cls-4" d="M86.4,75h6.08c.07,0,.21.07.21.19l.07.44c0,.13-.07.19-.21.19H86.47c-.14,0-.21.06-.21.19l-.08,1.63c0,.13.08.19.22.19h7c.14,0,.21.06.21.19h0l-.07.37c0,.07-.07.13-.22.13H85.55c-.14,0-.21-.06-.21-.19V72.27c0-.12.07-.19.21-.19h7.92c.14,0,.21.07.21.19v.07l-.14.37c0,.07-.07.13-.22.13H86.4c-.14,0-.22.06-.22.19h0l.08,1.63C86.18,75,86.33,75,86.4,75Z"/><path class="cls-4" d="M96.08,76.6v1.76c0,.13-.14.32-.28.32h-.28c-.22,0-.36-.07-.36-.32V72.59c0-.25.14-.38.43-.32H102c2.19,0,2.12,2.14,1.63,3.39a.55.55,0,0,0,0,.5,4,4,0,0,1,.21,2.39c0,.13-.14.19-.29.19h-.28a.3.3,0,0,1-.28-.32h0a3.4,3.4,0,0,0-.07-1.69c-.07-.25-.28-.31-.57-.31H96.51C96.22,76.23,96.08,76.35,96.08,76.6Zm6.86-3.13a.45.45,0,0,0-.5-.44H96.58a.45.45,0,0,0-.5.44h0V75a.46.46,0,0,0,.5.44h5.86a.46.46,0,0,0,.5-.44Z"/><path class="cls-4" d="M106.69,76.6l.07,1.7c0,.19-.07.25-.29.25h-.28c-.21,0-.35-.06-.35-.31V72.46a.31.31,0,0,1,.35-.31h6.29c1.35,0,2,.63,2,1.82v.37c0,1.26-.7,1.89-2,1.89h-5.3C106.83,76.23,106.69,76.35,106.69,76.6Zm6.85-3.13a.45.45,0,0,0-.49-.44h-5.94a.45.45,0,0,0-.49.44V75a.46.46,0,0,0,.49.44h5.94a.46.46,0,0,0,.49-.44Z"/><path class="cls-4" d="M116.51,72.21h.29a.43.43,0,0,1,.42.38V78.3a.43.43,0,0,1-.42.38h-.29a.43.43,0,0,1-.42-.38V72.59C116.16,72.34,116.3,72.21,116.51,72.21Z"/><path class="cls-4" d="M120.19,77.86h5.44c.14,0,.21.06.21.19h0l-.07.44a.21.21,0,0,1-.21.19h-6.29c-.14,0-.21-.07-.21-.19l-.07-6c0-.12.07-.19.21-.19h0l.64.07c.07,0,.21.06.21.18L120,77.8A.34.34,0,0,0,120.19,77.86Z"/><path class="cls-4" d="M139.42,75l6.15-.06a.21.21,0,0,0,.21-.19l.07-2.44c0-.13.07-.19.21-.19h.57a.21.21,0,0,1,.21.19v6c0,.13-.07.19-.21.19H146c-.14,0-.21-.06-.21-.19h0V76c0-.13-.07-.19-.21-.19l-6.15-.06q-.21,0-.21.18l-.08,2.45a.21.21,0,0,1-.21.19h-.49c-.14,0-.21-.06-.21-.19h0V72.21c0-.13.07-.19.21-.19h.07l.49.06c.07,0,.14.07.14.19l.08,2.45C139.28,75,139.35,75,139.42,75Z"/><path class="cls-4" d="M157.37,76.54A2.23,2.23,0,0,1,155,78.61h-4.1a2.23,2.23,0,0,1-2.33-2.07V74.22a2.23,2.23,0,0,1,2.33-2.07H155a2.23,2.23,0,0,1,2.33,2.07Zm-.92-2.32A1.34,1.34,0,0,0,155,73h-4.1a1.34,1.34,0,0,0-1.41,1.26V76.6a1.34,1.34,0,0,0,1.41,1.26H155a1.34,1.34,0,0,0,1.41-1.26Z"/><path class="cls-4" d="M167.84,74.47l-3.26,4a.58.58,0,0,1-.7.13c-.07,0-.07-.06-.14-.13l-3.4-4.14c-.21-.25-.35-.25-.35.06v4a.31.31,0,0,1-.35.31h-.36c-.21,0-.28-.12-.28-.31l.07-5.46c0-1,.35-1.07,1-.25l3.82,4.64c.07.13.28.13.42.06l.07-.06c1.27-1.63,2.62-3.2,4-4.83.07-.13.21-.19.43-.25a.4.4,0,0,1,.49.25v5.9a.31.31,0,0,1-.35.31h-.36a.31.31,0,0,1-.35-.31V74.6C168.26,74.16,168.12,74.09,167.84,74.47Z"/><path class="cls-4" d="M172.08,73.15v1.57c0,.13.07.19.21.19l6,.06c.07,0,.21.06.21.13l.07.5c0,.13-.07.19-.14.19h-6.08c-.14,0-.21.06-.21.19v1.63c0,.12.07.19.21.19l7,.06c.14,0,.21.06.21.19h0l-.07.44c0,.06-.07.12-.21.12h-7.92c-.14,0-.21-.06-.21-.19l.07-6.08c0-.13.07-.19.21-.19h7.92c.14,0,.21.06.21.19h0l-.07.37c0,.07-.07.13-.21.13h-6.93C172.22,73,172.08,73.09,172.08,73.15Z"/><path class="cls-4" d="M188.2,77.29l3.88-5a.31.31,0,0,1,.22-.06l.56.06c.14,0,.21.13.14.19v.06l-4.8,6.22c-.07.06-.22.12-.29.06s-.07,0-.07-.06L183,72.52c-.08-.06-.08-.18.07-.25h.77c.07,0,.15,0,.15.07l3.81,5a.4.4,0,0,0,.36-.07Z"/><path class="cls-4" d="M194.63,72.21h.28a.29.29,0,0,1,.28.25v5.9a.28.28,0,0,1-.28.25h-.28a.28.28,0,0,1-.28-.25v-5.9A.29.29,0,0,1,194.63,72.21Z"/><path class="cls-4" d="M204,75.79h-5c-1.41,0-2-.63-2-1.89v-.31c.07-.94.64-1.38,1.7-1.44,1.84-.07,3.68-.07,5.51,0a1.53,1.53,0,0,1,1.49,1.06c.07.26,0,.38-.28.32a1.15,1.15,0,0,1-.71-.32,1.11,1.11,0,0,0-.78-.31h-5a1,1,0,0,0-1,.75L198,74c-.07.63.21,1,1,1h4.95c1.41,0,2.05.63,1.91,1.82v.32c-.07.94-.64,1.38-1.7,1.38-1.77.06-3.53.06-5.3,0a1.67,1.67,0,0,1-1.56-.88.74.74,0,0,1-.07-.38c.07-.31.29-.38.5-.12a2.2,2.2,0,0,0,1.34.62h5a.8.8,0,0,0,.92-.75v-.31C205,76.16,204.67,75.79,204,75.79Z"/><path class="cls-4" d="M208,72.15h.21a.32.32,0,0,1,.36.31V78.3a.32.32,0,0,1-.36.31H208a.31.31,0,0,1-.35-.31V72.46A.36.36,0,0,1,208,72.15Z"/><path class="cls-4" d="M212.94,73,209.83,73a.14.14,0,0,1-.14-.12l-.22-.44c-.07-.06,0-.19.15-.25h7.91c.07,0,.22.06.22.19v.06l-.07.44c0,.06-.08.12-.22.12l-3.18.07c-.07,0-.21.06-.21.18h0v5.28a.21.21,0,0,1-.21.19h-.5c-.07,0-.21-.07-.21-.19V73.21c0-.12-.14-.18-.21-.18Z"/><path class="cls-4" d="M219.44,73.65l-.07.69a.78.78,0,0,0,.71.76h5.37a1.5,1.5,0,0,1,1.7,1.38l.07.44c.14,1.19-.43,1.76-1.77,1.82-2,.06-3.82.06-5.58-.06-.85-.07-1.28-.44-1.28-1.2a.3.3,0,0,1,.29-.25.29.29,0,0,1,.21.06l.49.44a1.1,1.1,0,0,0,.71.25h5c.71,0,1-.31,1.06-.87v-.38c0-.5-.28-.75-.85-.75h-5.3c-1,0-1.56-.44-1.63-1.32l-.07-.38c-.14-1.25.5-1.88,1.91-1.88,1.91,0,3.61,0,5.23.06a1.44,1.44,0,0,1,1.49,1c.14.31,0,.43-.36.37a1.59,1.59,0,0,1-.56-.31,1.21,1.21,0,0,0-.78-.32h-5.16C219.73,73,219.44,73.21,219.44,73.65Z"/><path class="cls-4" d="M129.31,78.68h5.09a.28.28,0,0,1,.28.25h0a.29.29,0,0,1-.28.25h-5.09a.29.29,0,0,1-.28-.25h0C129,78.8,129.1,78.68,129.31,78.68Z"/></g></g></svg>